# xmcd CD database file
#
# Track frame offsets:
#	150
#	43101
#	71492
#	102474
#	139356
#	165764
#	193860
#	223903
#
# Disc length: 3585 seconds
#
# Revision: 0
# Processed by: cddbd v1.4PL0 Copyright (c) Steve Scherf et al.
# Submitted via: CDex 1.50Beta6
#
DISCID=790dff08
DTITLE=Renato Chicco Quartet - Terrestrial
DYEAR=2003
DGENRE=Jazz
TTITLE0=Welcome Back
TTITLE1=Terrestrial
TTITLE2=Lethargy
TTITLE3=Tho Loop
TTITLE4=She's On Her Way
TTITLE5=Stretch
TTITLE6=Wind In Her Hair
TTITLE7=Beautiful Friendship
EXTD=YEAR: 2003
EXTT0=
EXTT1=
EXTT2=
EXTT3=
EXTT4=
EXTT5=
EXTT6=
EXTT7=
PLAYORDER=
